<svg xmlns="http://www.w3.org/2000/svg" version="1.1" xmlns:xlink="http://www.w3.org/1999/xlink" xmlns:svgjs="http://svgjs.dev/svgjs" width="2000" height="338" viewBox="0 0 2000 338"><g transform="matrix(1,0,0,1,-1.2121212121212466,1.0276464956606048)"><svg viewBox="0 0 396 67" data-background-color="#ffffff" preserveAspectRatio="xMidYMid meet" height="338" width="2000" xmlns="http://www.w3.org/2000/svg" xmlns:xlink="http://www.w3.org/1999/xlink"><g id="tight-bounds" transform="matrix(1,0,0,1,0.2400000000000091,-0.20370507458360976)"><svg viewBox="0 0 395.52 67.4074101491672" height="67.4074101491672" width="395.52"><g><svg viewBox="0 0 516.4851761494327 88.02317987628864" height="67.4074101491672" width="395.52"><g><rect width="7.898528558373475" height="88.02317987628864" x="92.38987126023869" y="0" fill="#000000" opacity="1" stroke-width="0" stroke="transparent" fill-opacity="1" class="rect-qz-0" data-fill-palette-color="primary" rx="1%" id="qz-0" data-palette-color="#000000"></rect></g><g transform="matrix(1,0,0,1,120.96517614943278,0.21896313402061196)"><svg viewBox="0 0 395.52 87.58525360824741" height="87.58525360824741" width="395.52"><g id="textblocktransform"><svg viewBox="0 0 395.52 87.58525360824741" height="87.58525360824741" width="395.52" id="textblock"><g><svg viewBox="0 0 395.52 87.58525360824741" height="87.58525360824741" width="395.52"><g transform="matrix(1,0,0,1,0,0)"><svg width="395.52" viewBox="-0.12 -33.36 193.98000000000002 42.96" height="87.58525360824741" data-palette-color="#000000"><path d="M7-20.48L7-20.48Q7-17.52 8.68-17.32L8.68-17.32Q8.56-16.76 7.76-16.76L7.76-16.76Q6.12-16.76 5.44-18.76L5.44-18.76Q5.12-19.68 5.12-21.02 5.12-22.36 6.16-24.24L6.16-24.24Q8.52-28.6 14.72-29.84L14.72-29.84Q16.84-30.24 19.26-30.24 21.68-30.24 23.4-30.72 25.12-31.2 25.76-31.8L25.76-31.8Q27.44-33.36 28.24-33.36 29.04-33.36 29.04-32.88L29.04-32.88Q29.04-32.76 29.04-32.64L29.04-32.64Q28.76-31.52 26.64-30.52L26.64-30.52Q25.36-29.96 23.76-29.64L23.76-29.64Q22.44-29.08 21.56-26.58 20.68-24.08 19.72-19.36L19.72-19.36Q21.8-19.56 23.16-19.56L23.16-19.56Q23.52-19.56 23.48-19.12L23.48-19.12Q23.32-18.64 22.64-18.62 21.96-18.6 19.48-18.2L19.48-18.2Q17.6-8.92 16.2-5.08L16.2-5.08Q12.68 4.64 6.16 4.64L6.16 4.64Q1.48 4.64 0.32 0.36L0.32 0.36Q-0.12-1.12-0.12-2.6L-0.12-2.6Q-0.12-5.4 1.36-8.2L1.36-8.2Q3.6-12.48 7.24-12.48L7.24-12.48Q7.76-12.48 8.1-12.24 8.44-12 8.56-11.52L8.56-11.52Q5.12-11.52 2.88-7.96L2.88-7.96Q1.12-5.2 1.12-2.24L1.12-2.24Q1.12 2.08 4.16 3.04L4.16 3.04Q4.88 3.24 6.04 3.24 7.2 3.24 8.5 2.58 9.8 1.92 10.86 0.18 11.92-1.56 12.6-2.74 13.28-3.92 14.16-6.96L14.16-6.96Q15.2-10.68 15.92-13.86 16.64-17.04 16.8-17.68L16.8-17.68Q14.56-17.32 13.42-17.32 12.28-17.32 12.12-18.32L12.12-18.32Q12.08-19.12 12.56-19.24L12.56-19.24Q12.76-19 13.82-19 14.88-19 17.16-19.2L17.16-19.2Q18.16-23.12 19.08-25.58 20-28.04 21.24-29.32L21.24-29.32Q20.6-29.28 19.24-29.28L19.24-29.28Q11.56-29.28 8.48-24.76L8.48-24.76Q7-22.64 7-20.48ZM24.6-12.28L24.6-12.28Q24.6-12.08 24.24-12.08 23.88-12.08 23.54-12.24 23.2-12.4 23.2-12.68L23.2-12.68Q23.2-16.76 24.12-19.26 25.04-21.76 26.56-21.76L26.56-21.76Q26.96-21.76 27.24-21.48 27.52-21.2 27.52-20.72L27.52-20.72Q25.72-18.92 24.92-15.36L24.92-15.36Q24.6-13.88 24.6-12.28ZM33.08 5.84L33.08 5.84Q30.76 5.84 29.66 3.4 28.56 0.96 28.56-3.92 28.56-8.8 30-15.48 31.44-22.16 33.38-26.56 35.32-30.96 36.76-30.96L36.76-30.96Q37.44-30.96 37.44-30.16L37.44-30.16Q36.6-28.24 35.32-24.38 34.04-20.52 33.18-17.24 32.32-13.96 31.62-9.56 30.92-5.16 30.92-2.02 30.92 1.12 31.54 2.82 32.16 4.52 33.24 4.52L33.24 4.52Q34.16 4.52 35 3.66 35.84 2.8 36.2 1.96L36.2 1.96Q36.4 1.52 36.92 1.72L36.92 1.72Q37.12 1.8 37.02 2.06 36.92 2.32 36.7 2.72 36.48 3.12 35.92 3.96L35.92 3.96Q34.72 5.84 33.08 5.84ZM41.08 0L41.08 0Q37.8 0 37.8-5.16L37.8-5.16Q37.8-8.24 39.32-11.92L39.32-11.92Q41.44-17.08 44.88-18.96L44.88-18.96Q46.36-19.76 47.64-19.76 48.92-19.76 49.66-19.2 50.4-18.64 50.6-18.08L50.6-18.08 50.84-17.56Q50.72-16.88 50.16-16.88L50.16-16.88Q49.52-16.88 49.42-17.18 49.32-17.48 49.2-17.7 49.08-17.92 48.64-18.3 48.2-18.68 47.64-18.68L47.64-18.68Q45.04-18.68 42.92-14L42.92-14Q40.52-8.6 40.52-3.84L40.52-3.84Q40.52-1.44 41.48-1.44L41.48-1.44Q42.24-1.44 43.62-3.14 45-4.84 46.52-7.4L46.52-7.4Q49.16-11.8 50.8-15.04L50.8-15.04Q52.16-17.92 53.6-17.92L53.6-17.92Q54.36-17.92 54.36-17L54.36-17Q54-16.24 53.44-14.84 52.88-13.44 51.96-9.28 51.04-5.12 51.04-1 51.04 3.12 52.28 3.12L52.28 3.12Q52.76 3.12 53.16 2.7 53.56 2.28 53.88 1.44L53.88 1.44Q54 1 54.44 1L54.44 1Q54.59 1 54.68 1.12 54.76 1.24 54.68 1.52 54.59 1.8 54.4 2.3 54.2 2.8 53.54 3.64 52.88 4.48 52.16 4.48L52.16 4.48Q50.48 4.48 49.58 2.28 48.68 0.08 48.68-2.92 48.68-5.92 49.12-8.68L49.12-8.68 48.72-8.68Q43.64 0 41.08 0ZM69.47-18.12L69.47-18.12Q70.63-17.24 71.69-17.24 72.75-17.24 73.19-17.52L73.19-17.52Q73.19-17 72.73-16.54 72.27-16.08 71.41-16.08 70.55-16.08 69.55-16.48L69.55-16.48Q69.43-12.72 68.11-8.78 66.79-4.84 64.71-2.18 62.63 0.48 60.57 0.48 58.51 0.48 57.63-1.22 56.75-2.92 56.75-5.12L56.75-5.12Q56.75-7.76 57.49-10.78 58.23-13.8 59.23-15.64 60.23-17.48 61.03-17.48 61.83-17.48 61.83-16.64L61.83-16.64Q59.31-7.92 59.31-4.4 59.31-0.88 60.87-0.88L60.87-0.88Q62.23-0.88 63.97-3.24 65.71-5.6 66.99-9.46 68.27-13.32 68.27-17L68.27-17 68.27-17.24Q67.11-18.08 66.39-19.24 65.67-20.4 65.67-20.98 65.67-21.56 66.19-22.04 66.71-22.52 67.31-22.52L67.31-22.52Q68.03-22.52 68.65-21.18 69.27-19.84 69.47-18.12ZM77.27 0.36L77.27 0.36Q72.35 0.36 72.35-6.4L72.35-6.4Q72.35-10.2 74.27-14L74.27-14Q76.71-18.8 80.07-18.8L80.07-18.8Q80.55-18.8 80.87-18.56 81.19-18.32 81.31-17.84L81.31-17.84Q78.79-17.84 76.95-13.8 75.11-9.76 75.11-5.84L75.11-5.84Q75.11-1.08 77.71-1.08L77.71-1.08Q79.19-1.08 80.79-3.34 82.39-5.6 83.45-9.28 84.51-12.96 84.51-16.68L84.51-16.68 84.51-17.16Q83.27-17.96 82.47-19.16 81.67-20.36 81.67-20.92 81.67-21.48 82.17-21.98 82.67-22.48 83.19-22.48L83.19-22.48Q83.95-22.48 84.67-21.12 85.39-19.76 85.67-18.04L85.67-18.04Q86.91-17.2 87.85-17.2 88.79-17.2 89.35-17.52L89.35-17.52Q89.35-16.96 88.95-16.52 88.55-16.08 87.71-16.08 86.87-16.08 85.79-16.48L85.79-16.48Q85.75-12.64 84.63-8.76 83.51-4.88 81.51-2.26 79.51 0.36 77.27 0.36ZM101.63-11.48L101.63-11.48Q100.11-11.48 100.11-14.8L100.11-14.8Q100.11-16.68 100.83-18.32L100.83-18.32Q98.11-15.96 94.75-9.54 91.39-3.12 91.39-1.16L91.39-1.16Q91.39-0.68 90.75-0.68L90.75-0.68Q89.59-0.68 89.59-3.84L89.59-3.84Q89.59-9.8 90.79-14.64 91.99-19.48 93.71-19.48L93.71-19.48Q94.47-19.48 94.47-18.6L94.47-18.6Q92.63-12.76 91.83-6.64L91.83-6.64 92.11-6.64Q95.35-14.12 99.27-18.32L99.27-18.32Q101.51-20.72 103.35-20.72L103.35-20.72Q103.75-20.72 104.01-20.48 104.27-20.24 104.27-19.88L104.27-19.88Q103.99-19.6 103.59-19.04 103.19-18.48 102.51-16.38 101.83-14.28 101.83-11.8L101.83-11.8Q101.83-11.48 101.63-11.48ZM129.95 7.24L129.95 7.24Q132.87 7.24 133.87 5.04L133.87 5.04Q134.47 5.04 134.47 5.88L134.47 5.88Q134.47 7.56 132.67 8.72L132.67 8.72Q131.31 9.6 129.63 9.6 127.95 9.6 126.55 9.32 125.15 9.04 123.15 8.16 121.15 7.28 120.37 6.92 119.59 6.56 116.95 5.14 114.31 3.72 114.11 3.64L114.11 3.64Q111.31 4.68 108.01 4.68 104.71 4.68 103.83 2.92L103.83 2.92Q103.59 2.48 103.59 1.9 103.59 1.32 104.41 0.6 105.23-0.12 106.79-0.12L106.79-0.12Q109.71-0.12 115.07 2.08L115.07 2.08Q120.91-0.72 124.05-7.42 127.19-14.12 127.19-19.48L127.19-19.48Q127.19-26.04 124.03-26.04L124.03-26.04Q124.03-26.32 124.31-26.56L124.31-26.56Q124.83-27 125.59-27L125.59-27Q129.31-27 129.31-20.2L129.31-20.2Q129.31-14.68 125.93-7.64 122.55-0.6 116.43 2.64L116.43 2.64Q121.87 4.96 123.59 5.6L123.59 5.6Q127.83 7.24 129.95 7.24ZM117.67-4.44Q119.19-5.96 119.95-7.76 120.71-9.56 120.71-10.78 120.71-12 121.59-12.38 122.47-12.76 122.67-12.16L122.67-12.16 122.71-11.88Q122.71-10.24 121.61-7.88 120.51-5.52 118.35-3.54 116.19-1.56 113.83-1.56L113.83-1.56Q109.23-1.56 107.91-6.36L107.91-6.36Q107.39-8.12 107.39-10.82 107.39-13.52 108.71-17.6L108.71-17.6Q110.91-24.28 115.07-28.04L115.07-28.04Q118.39-30.96 121.95-30.96L121.95-30.96Q123.07-30.96 123.65-30.46 124.23-29.96 124.23-29.44L124.23-29.44 124.23-28.96Q123.87-29.12 122.79-29.12L122.79-29.12Q118.43-29.12 114.83-23.44L114.83-23.44Q111.63-18.4 110.79-12.16L110.79-12.16Q110.59-10.52 110.59-9.12L110.59-9.12Q110.59-5.52 112.11-3.88L112.11-3.88Q113.03-2.92 114.59-2.92 116.15-2.92 117.67-4.44ZM106.35 0.88L106.35 0.88Q105.11 0.88 104.79 1.76L104.79 1.76Q104.71 1.96 104.71 2.12L104.71 2.12Q104.71 2.8 105.69 3.22 106.67 3.64 108.59 3.64 110.51 3.64 112.75 2.96L112.75 2.96Q108.51 0.88 106.35 0.88ZM145.5 3L145.5 3Q145.98 3 146.4 2.58 146.82 2.16 147.18 1.28L147.18 1.28Q147.22 0.92 147.66 0.92 148.1 0.92 148 1.28 147.9 1.64 147.68 2.16 147.46 2.68 146.76 3.54 146.06 4.4 145.34 4.4L145.34 4.4Q143.74 4.4 142.86 2.4L142.86 2.4Q141.94 0.4 141.94-2.54 141.94-5.48 142.38-8.6L142.38-8.6 142.02-8.6Q137.18-0.16 134.58-0.16L134.58-0.16Q131.5-0.16 131.5-4.86 131.5-9.56 133.5-14.24L133.5-14.24Q135.7-19.4 137.38-19.4L137.38-19.4Q138.1-19.4 138.1-18.52L138.1-18.52Q136.42-14.08 135.22-9.88 134.02-5.68 134.02-3.62 134.02-1.56 134.98-1.56L134.98-1.56Q135.66-1.56 137-3.2 138.34-4.84 139.74-7.2L139.74-7.2Q142.74-12.28 144.32-15.84 145.9-19.4 147.58-19.4L147.58-19.4Q148.38-19.4 148.38-18.52L148.38-18.52Q145.82-13.44 144.74-6.4L144.74-6.4Q144.3-3.6 144.3-0.92L144.3-0.92Q144.3 3 145.5 3ZM160.94-19.4L160.94-19.4Q163.98-19.4 163.98-15.84L163.98-15.84Q163.98-13.8 162.62-11.56L162.62-11.56Q160.3-7.84 156.46-7.84L156.46-7.84Q155.86-7.84 155.46-8.04 155.06-8.24 154.86-8.64L154.86-8.64Q157.7-8.64 160.06-11.92L160.06-11.92Q161.98-14.56 161.98-16.76L161.98-16.76Q161.98-18.4 160.66-18.4L160.66-18.4Q158.02-18.4 155.74-14.28L155.74-14.28Q153.3-9.8 153.3-5.08L153.3-5.08Q153.3-1.08 155.58-0.28L155.58-0.28Q156.02-0.12 156.7-0.12 157.38-0.12 158.14-0.46 158.9-0.8 159.42-1.28L159.42-1.28Q160.46-2.24 161.14-3.4L161.14-3.4Q161.3-3.72 161.74-3.72L161.74-3.72Q162.46-3.72 162.42-3.48L162.42-3.48Q162.3-3.04 161.52-2 160.74-0.96 160.08-0.34 159.42 0.28 158.36 0.78 157.3 1.28 156.22 1.28L156.22 1.28Q151.98 1.28 150.82-2.72L150.82-2.72Q150.46-4.08 150.46-5.52L150.46-5.52Q150.46-8.2 151.7-11.36L151.7-11.36Q153.66-16.16 157.1-18.28L157.1-18.28Q158.98-19.4 160.94-19.4ZM168.9-1.36L168.9-1.36Q168.9 1.44 170.7 1.44L170.7 1.44Q172.38 1.44 173.84-1.32 175.3-4.08 175.3-8.28L175.3-8.28Q175.3-10.32 174.56-14.04 173.82-17.76 173.82-18.9 173.82-20.04 173.9-20.4L173.9-20.4Q173.38-19.56 170.9-14.82 168.42-10.08 166.5-7.32L166.5-7.32Q166.34-7.16 166.06-7.22 165.78-7.28 165.6-7.46 165.42-7.64 165.42-7.72 165.42-7.8 165.46-7.84L165.46-7.84Q167.34-10.56 169.84-15.34 172.34-20.12 174.02-22.48 175.7-24.84 177.34-24.84L177.34-24.84Q178.18-24.84 178.18-24.12L178.18-24.12Q178.18-23.64 177.5-22.84L177.5-22.84Q175.34-20.4 175.34-17.84L175.34-17.84Q175.34-16.32 176.5-11.98 177.66-7.64 177.66-5.68L177.66-5.68Q177.66-2.16 175.7 0.3 173.74 2.76 171.26 2.76L171.26 2.76Q167.74 2.76 167.74-1.28L167.74-1.28Q167.74-4.32 169.6-7.64 171.46-10.96 173.34-12.12L173.34-12.12Q173.7-12.36 173.8-11.84 173.9-11.32 173.66-11.16L173.66-11.16Q171.54-9.96 169.98-6.04L169.98-6.04Q168.9-3.28 168.9-1.36ZM183.58-17.32L183.58-17.32Q182.02-17.32 182.02-18.6L182.02-18.6Q182.02-19.08 182.42-19.2L182.42-19.2Q182.46-19.24 182.54-19.24L182.54-19.24Q182.78-18.96 183.44-18.96 184.1-18.96 185.54-19.04L185.54-19.04Q187.42-24.12 189.14-24.12L189.14-24.12Q189.82-24.12 189.82-23.36L189.82-23.36Q189.18-21.76 188.38-19.24L188.38-19.24Q192.34-19.68 193.54-19.68L193.54-19.68Q193.86-19.68 193.86-19.36L193.86-19.36Q193.86-18.72 193.02-18.72L193.02-18.72Q192.58-18.72 187.94-17.88L187.94-17.88Q184.78-7.88 184.78-1.68 184.78 4.52 187.26 4.52L187.26 4.52Q188.26 4.52 189.14 3.66 190.02 2.8 190.38 1.96L190.38 1.96Q190.54 1.52 191.06 1.72L191.06 1.72Q191.3 1.8 191.22 1.96L191.22 1.96Q190.98 2.48 190.62 3.16 190.26 3.84 189.22 4.84 188.18 5.84 187.1 5.84L187.1 5.84Q182.34 5.84 182.34-2.44L182.34-2.44Q182.34-9.44 184.94-17.4L184.94-17.4Q184.38-17.32 183.58-17.32Z" opacity="1" transform="matrix(1,0,0,1,0,0)" fill="#000000" class="wordmark-text-0" data-fill-palette-color="primary" id="text-0"></path></svg></g></svg></g></svg></g></svg></g><g transform="matrix(1,0,0,1,0,0.21896313402061196)"><svg viewBox="0 0 71.71309492941808 87.58525360824741" height="87.58525360824741" width="71.71309492941808"><g><svg xmlns="http://www.w3.org/2000/svg" xmlns:xlink="http://www.w3.org/1999/xlink" version="1.1" x="0" y="0" viewBox="13.15567173450784 4.995999999999999 73.69024210988722 89.99999999999999" enable-background="new 0 0 100 100" xml:space="preserve" height="87.58525360824741" width="71.71309492941808" class="icon-icon-0" data-fill-palette-color="accent" id="icon-0"><g fill="#ff4805" data-fill-palette-color="accent"><path d="M68.357 31.947c0.387 0.141 0.721 0.207 1.05 0.207 0.454 0 0.888-0.13 1.323-0.393 0.543-0.324 0.826-0.811 0.776-1.337-0.055-0.575-0.494-1.065-1.17-1.309-0.917-0.336-1.62-0.269-2.374 0.188-0.543 0.324-0.826 0.812-0.775 1.339C67.243 31.216 67.682 31.705 68.357 31.947z" fill="#ff4805" data-fill-palette-color="accent"></path><path d="M57.655 33.669c0.386 0.138 0.718 0.202 1.044 0.202 0.452 0 0.886-0.127 1.333-0.393 0.539-0.329 0.818-0.818 0.765-1.344-0.058-0.573-0.495-1.06-1.17-1.304-0.918-0.329-1.614-0.265-2.372 0.187-0.541 0.322-0.824 0.807-0.775 1.333C56.532 32.925 56.969 33.417 57.655 33.669z" fill="#ff4805" data-fill-palette-color="accent"></path><path d="M65.492 38.362c0.386 0.138 0.718 0.202 1.044 0.202 0 0 0 0 0 0 0.451 0 0.884-0.126 1.331-0.391 0.541-0.328 0.821-0.818 0.768-1.345-0.057-0.573-0.496-1.061-1.173-1.304-0.919-0.329-1.613-0.264-2.372 0.188-0.54 0.323-0.822 0.809-0.773 1.334C64.371 37.62 64.808 38.111 65.492 38.362z" fill="#ff4805" data-fill-palette-color="accent"></path><path d="M38.231 19.325c0.385 0.141 0.718 0.207 1.048 0.207 0.452 0 0.886-0.128 1.327-0.392 0.542-0.323 0.824-0.81 0.774-1.335-0.054-0.575-0.491-1.066-1.175-1.315-0.923-0.329-1.613-0.265-2.372 0.19-0.542 0.328-0.823 0.817-0.771 1.344C37.12 18.597 37.559 19.084 38.231 19.325z" fill="#ff4805" data-fill-palette-color="accent"></path><path d="M30.131 14.478c0.385 0.138 0.716 0.202 1.043 0.202 0.452 0 0.886-0.127 1.333-0.393 0.541-0.327 0.82-0.816 0.768-1.343-0.058-0.573-0.496-1.06-1.167-1.302-0.907-0.333-1.619-0.268-2.377 0.186-0.541 0.323-0.823 0.81-0.773 1.335C29.012 13.738 29.449 14.229 30.131 14.478z" fill="#ff4805" data-fill-palette-color="accent"></path><path d="M86.762 80.371C86.762 80.371 86.762 80.371 86.762 80.371l-5.728-47.057c0-0.024 0.006-0.048 0.006-0.072 0-5.783-7.276-10.488-16.219-10.488-4.804 0-9.114 1.365-12.086 3.518L51.344 14.84c-0.001-0.008-0.006-0.014-0.007-0.021-0.535-5.473-7.571-9.823-16.167-9.823-8.944 0-16.22 4.705-16.22 10.488 0 0.026 0.006 0.05 0.006 0.076l-5.728 47.053c-0.859 7.045 6.083 11.562 12.869 13.44 3.172 0.876 6.164 1.314 9.138 1.314 2.688 0 5.368-0.38 8.143-1.099l-0.5 4.104c-0.005 0.042-0.007 0.085-0.007 0.127 0 0.001 0.001 0.003 0.001 0.004-0.468 4.248 1.472 7.883 5.634 10.515 4.194 2.652 10.254 3.978 16.315 3.978s12.123-1.327 16.315-3.979C85.341 88.357 87.287 84.676 86.762 80.371zM78.914 32.64c-0.012 0.085-0.031 0.168-0.021 0.258l0.06 0.487c-0.13 4.572-6.414 8.269-14.131 8.269-7.722 0-14.009-3.701-14.133-8.276l0.059-0.479c0.005-0.043 0.007-0.085 0.007-0.127 0-0.048-0.019-0.091-0.026-0.138 0.529-4.354 6.64-7.803 14.093-7.803C72.278 24.829 78.391 28.282 78.914 32.64zM35.169 7.072c7.799 0 14.144 3.774 14.144 8.413 0 4.638-6.345 8.412-14.144 8.412-7.716 0-13.998-3.695-14.131-8.265l0.059-0.489c0.011-0.091-0.009-0.176-0.021-0.262C21.602 10.523 27.714 7.072 35.169 7.072zM26.649 74.052c-2.056-0.569-12.264-3.782-11.361-11.188l5.217-42.852c2.571 3.551 8.096 5.96 14.665 5.96 6.604 0 12.153-2.435 14.706-6.016l0.969 7.968c0 0.006 0.004 0.01 0.006 0.017-1.42 1.558-2.25 3.367-2.25 5.302 0 0.022 0.005 0.043 0.005 0.064l-4.959 40.743C37.862 75.684 32.586 75.691 26.649 74.052zM80.026 89.263c-7.673 4.854-22.736 4.854-30.411 0-3.53-2.232-5.103-5.14-4.677-8.642l0.686-5.636c0-0.003 0.001-0.006 0.001-0.01l4.529-37.208c2.57 3.551 8.096 5.962 14.667 5.962 6.569 0 12.094-2.41 14.665-5.96l5.215 42.853 0 0c0 0 0 0 0 0C85.128 84.124 83.555 87.031 80.026 89.263z" fill="#ff4805" data-fill-palette-color="accent"></path></g></svg></g></svg></g></svg></g><defs></defs></svg><rect width="395.52" height="67.4074101491672" fill="none" stroke="none" visibility="hidden"></rect></g></svg></g></svg>